<svg preserveAspectRatio="xMidYMid meet" data-bbox="10 37.1 180.1 125.9" viewBox="10 37.1 180.1 125.9" xmlns="http://www.w3.org/2000/svg" data-type="color" role="presentation" aria-hidden="true"><defs><style>#comp-kvivltg91 svg [data-color="1"] {fill: #55CAF5;}</style></defs>
    <g>
        <path d="M188.1 73.7c-23.7-23.6-54.9-36.6-87.9-36.6h-.6l-.8.1c-32.4.3-63.2 13.3-86.7 36.9-.8.9-2.1 2.4-2.1 4.5 0 1.2.2 3 1.7 4.5 1.3 1.3 3 2 4.7 2 1.8 0 3.4-.7 4.7-2 21.3-21 49.3-32.7 78.8-32.7h.3c29.4 0 57.4 11.6 78.5 32.8 1.3 1.3 3 2 4.7 2 1.8 0 3.4-.7 4.7-2 1.3-1.3 2-3 2-4.7 0-1.8-.7-3.5-2-4.8zm-88-25.1h-.3c-29.7 0-57.7 11.7-79 32.9-.9.9-2 1.3-3.3 1.3-.5 0-1.1-.1-1.5-.3.4.2 1 .3 1.5.3 1.2 0 2.4-.4 3.3-1.3 21.2-21.2 49.3-32.9 79-32.9h.3c27.7 0 54 10.2 74.8 29.1-20.7-18.9-47.1-29.1-74.8-29.1zm85.5 32.7c-.9.9-2 1.3-3.3 1.3s-2.4-.5-3.3-1.3c.9.9 2 1.3 3.3 1.3 1.3 0 2.4-.5 3.3-1.3.9-.9 1.3-2 1.3-3.3s-.4-2.4-1.3-3.3c.9.9 1.3 2 1.3 3.3 0 1.2-.4 2.4-1.3 3.3z" fill="#000010" data-color="1"></path>
        <path d="M100.2 66.3h-.7l-.2.1c-24.6.2-47.9 10.2-65.9 28.1-1.4 1.4-2.1 2.9-2.1 4.6 0 1.9.5 3.3 1.8 4.6 1.3 1.3 3 2 4.7 2 1.8 0 3.4-.7 4.7-2 15.5-15.5 35.9-24 57.4-24h.2c21.5 0 41.9 8.6 57.3 24 1.3 1.3 3 2 4.7 2 1.8 0 3.4-.7 4.7-2 1.3-1.3 2-2.9 2-4.7s-.7-3.5-2-4.6c-17.9-18.2-41.6-28.1-66.6-28.1zm-.2 2c-1.2 0-2.2 0-3.4.1 1.2-.1 2.4-.1 3.4-.1l.2-.1-.2.1zm58.4 33.6c-1.9-1.9-3.7-3.6-5.8-5.2 2.1 1.6 3.9 3.4 5.8 5.2.2.3.4.4.7.6-.2-.1-.4-.3-.7-.6zm3.3 1.5c-.3 0-.6 0-.9-.1.3 0 .6.1.9.1.2 0 .4 0 .5-.1-.1 0-.3.1-.5.1zm3.3-8c.2.2.4.4.6.7-.2-.3-.4-.5-.6-.7z" fill="#000010" data-color="1"></path>
        <path d="M100.1 95.6h-1c-16.9.2-33.1 7-45.5 19.5-1.4 1.4-2 3.1-2 4.7 0 1.9.6 3.4 1.9 4.7 1.3 1.3 3 2 4.8 2s3.4-.7 4.7-2c10-10 23.1-15.6 37-15.6h.2c13.8 0 26.9 5.5 36.9 15.6 1.3 1.3 3 2.1 4.7 2.1 1.8 0 3.4-.7 4.7-2 1.3-1.3 2-3 2-4.8 0-1.8-.7-3.5-2-4.8-12.6-12.6-29-19.4-46.4-19.4zm-44 20.9c3.2-3.2 6.6-5.9 10.1-8.3-3.7 2.3-7 5.1-10.1 8.3zm88.4 6.5c-.9.9-2 1.4-3.3 1.4-1.2 0-2.4-.5-3.3-1.4-10.2-10.3-23.6-15.9-37.8-15.9h-.1c-14.1 0-27.6 5.7-37.8 15.9-.9.9-2 1.3-3.3 1.4-1 0-1.9-.3-2.7-.8.8.5 1.7.8 2.7.8 1.2 0 2.4-.5 3.3-1.4 10.2-10.3 23.7-15.9 37.8-15.9h.2c14.1 0 27.5 5.7 37.8 15.9.9.9 2.1 1.4 3.3 1.4 1-.1 2.2-.5 3.2-1.4.9-.9 1.3-2 1.3-3.3s-.4-2.4-1.3-3.3c.9.9 1.3 2 1.3 3.3s-.5 2.4-1.3 3.3z" fill="#000010" data-color="1"></path>
        <path d="M100 143.5c-2.6 0-5.1 1-6.9 2.8s-2.8 4.3-2.8 6.9c0 5.4 4.4 9.8 9.8 9.8 2.6 0 5.1-1 6.9-2.8s2.8-4.3 2.8-6.9c-.1-5.4-4.4-9.8-9.8-9.8z" fill="#000010" data-color="1"></path>
    </g>
</svg>