<svg preserveAspectRatio="xMidYMid meet" data-bbox="66.2 33.9 67.6 132.2" viewBox="66.2 33.9 67.6 132.2" height="200" width="200" xmlns="http://www.w3.org/2000/svg" data-type="color" role="presentation" aria-hidden="true"><defs><style>#comp-kvivlsc6 svg [data-color="1"] {fill: #55CAF5;}</style></defs>
    <g>
        <path d="M120.9 33.9H79.1c-7.1 0-12.9 5.8-12.9 12.9v106.4c0 7.1 5.8 12.9 12.9 12.9h41.8c7.1 0 12.9-5.8 12.9-12.9V46.8c0-7.1-5.8-12.9-12.9-12.9zm-18.6 123.4h-4.7c-2.4 0-4.5-2-4.5-4.5s2-4.5 4.5-4.5h4.7c2.5 0 4.5 2 4.5 4.5s-2 4.5-4.5 4.5zm26.7-17.8H71V46.8c0-4.5 3.6-8.1 8.1-8.1h41.8c4.5 0 8.1 3.6 8.1 8.1v92.7zM105.6 49c0 1.3-1.1 2.4-2.4 2.4h-6.4c-1.3 0-2.4-1-2.4-2.4 0-1.3 1.1-2.4 2.4-2.4h6.4c1.3 0 2.4 1.1 2.4 2.4z" fill="#D81313" data-color="1"></path>
    </g>
</svg>